<svg xmlns="http://www.w3.org/2000/svg" width="322" height="70" viewBox="0 0 322 70">
  <rect width="322" height="70" fill="#000"/>
  
  <rect x="14" y="14" width="7" height="7" fill="#505050"/>
  <rect x="21" y="14" width="7" height="7" fill="#505050"/>
  <rect x="28" y="14" width="7" height="7" fill="#505050"/>
  <rect x="35" y="14" width="7" height="7" fill="#505050"/>
  <rect x="56" y="14" width="7" height="7" fill="#505050"/>
  <rect x="63" y="14" width="7" height="7" fill="#505050"/>
  <rect x="77" y="14" width="7" height="7" fill="#505050"/>
  <rect x="91" y="14" width="7" height="7" fill="#505050"/>
  <rect x="98" y="14" width="7" height="7" fill="#505050"/>
  <rect x="105" y="14" width="7" height="7" fill="#505050"/>
  <rect x="112" y="14" width="7" height="7" fill="#505050"/>
  <rect x="126" y="14" width="7" height="7" fill="#505050"/>
  <rect x="133" y="14" width="7" height="7" fill="#505050"/>
  <rect x="140" y="14" width="7" height="7" fill="#505050"/>
  <rect x="154" y="14" width="7" height="7" fill="#505050"/>
  <rect x="161" y="14" width="7" height="7" fill="#505050"/>
  <rect x="189" y="14" width="7" height="7" fill="#efefef"/>
  <rect x="196" y="14" width="7" height="7" fill="#efefef"/>
  <rect x="203" y="14" width="7" height="7" fill="#efefef"/>
  <rect x="217" y="14" width="7" height="7" fill="#efefef"/>
  <rect x="224" y="14" width="7" height="7" fill="#efefef"/>
  <rect x="245" y="14" width="7" height="7" fill="#efefef"/>
  <rect x="252" y="14" width="7" height="7" fill="#efefef"/>
  <rect x="259" y="14" width="7" height="7" fill="#efefef"/>
  <rect x="266" y="14" width="7" height="7" fill="#efefef"/>
  <rect x="280" y="14" width="7" height="7" fill="#efefef"/>
  <rect x="287" y="14" width="7" height="7" fill="#efefef"/>
  <rect x="294" y="14" width="7" height="7" fill="#efefef"/>
  <rect x="301" y="14" width="7" height="7" fill="#efefef"/>
  <rect x="14" y="21" width="7" height="7" fill="#505050"/>
  <rect x="35" y="21" width="7" height="7" fill="#505050"/>
  <rect x="49" y="21" width="7" height="7" fill="#505050"/>
  <rect x="91" y="21" width="7" height="7" fill="#505050"/>
  <rect x="126" y="21" width="7" height="7" fill="#505050"/>
  <rect x="147" y="21" width="7" height="7" fill="#505050"/>
  <rect x="168" y="21" width="7" height="7" fill="#505050"/>
  <rect x="189" y="21" width="7" height="7" fill="#efefef"/>
  <rect x="210" y="21" width="7" height="7" fill="#efefef"/>
  <rect x="231" y="21" width="7" height="7" fill="#efefef"/>
  <rect x="266" y="21" width="7" height="7" fill="#efefef"/>
  <rect x="280" y="21" width="7" height="7" fill="#efefef"/>
  <rect x="301" y="21" width="7" height="7" fill="#efefef"/>
  <rect x="14" y="28" width="7" height="7" fill="#505050"/>
  <rect x="35" y="28" width="7" height="7" fill="#505050"/>
  <rect x="49" y="28" width="7" height="7" fill="#505050"/>
  <rect x="77" y="28" width="7" height="7" fill="#505050"/>
  <rect x="91" y="28" width="7" height="7" fill="#505050"/>
  <rect x="98" y="28" width="7" height="7" fill="#505050"/>
  <rect x="105" y="28" width="7" height="7" fill="#505050"/>
  <rect x="112" y="28" width="7" height="7" fill="#505050"/>
  <rect x="126" y="28" width="7" height="7" fill="#505050"/>
  <rect x="147" y="28" width="7" height="7" fill="#505050"/>
  <rect x="168" y="28" width="7" height="7" fill="#505050"/>
  <rect x="189" y="28" width="7" height="7" fill="#efefef"/>
  <rect x="210" y="28" width="7" height="7" fill="#efefef"/>
  <rect x="231" y="28" width="7" height="7" fill="#efefef"/>
  <rect x="245" y="28" width="7" height="7" fill="#efefef"/>
  <rect x="252" y="28" width="7" height="7" fill="#efefef"/>
  <rect x="259" y="28" width="7" height="7" fill="#efefef"/>
  <rect x="266" y="28" width="7" height="7" fill="#efefef"/>
  <rect x="280" y="28" width="7" height="7" fill="#efefef"/>
  <rect x="301" y="28" width="7" height="7" fill="#efefef"/>
  <rect x="14" y="35" width="7" height="7" fill="#505050"/>
  <rect x="35" y="35" width="7" height="7" fill="#505050"/>
  <rect x="49" y="35" width="7" height="7" fill="#505050"/>
  <rect x="77" y="35" width="7" height="7" fill="#505050"/>
  <rect x="112" y="35" width="7" height="7" fill="#505050"/>
  <rect x="126" y="35" width="7" height="7" fill="#505050"/>
  <rect x="147" y="35" width="7" height="7" fill="#505050"/>
  <rect x="168" y="35" width="7" height="7" fill="#505050"/>
  <rect x="189" y="35" width="7" height="7" fill="#efefef"/>
  <rect x="210" y="35" width="7" height="7" fill="#efefef"/>
  <rect x="231" y="35" width="7" height="7" fill="#efefef"/>
  <rect x="245" y="35" width="7" height="7" fill="#efefef"/>
  <rect x="266" y="35" width="7" height="7" fill="#efefef"/>
  <rect x="280" y="35" width="7" height="7" fill="#efefef"/>
  <rect x="301" y="35" width="7" height="7" fill="#efefef"/>
  <rect x="14" y="42" width="7" height="7" fill="#505050"/>
  <rect x="21" y="42" width="7" height="7" fill="#505050"/>
  <rect x="28" y="42" width="7" height="7" fill="#505050"/>
  <rect x="35" y="42" width="7" height="7" fill="#505050"/>
  <rect x="49" y="42" width="7" height="7" fill="#505050"/>
  <rect x="77" y="42" width="7" height="7" fill="#505050"/>
  <rect x="91" y="42" width="7" height="7" fill="#505050"/>
  <rect x="98" y="42" width="7" height="7" fill="#505050"/>
  <rect x="105" y="42" width="7" height="7" fill="#505050"/>
  <rect x="112" y="42" width="7" height="7" fill="#505050"/>
  <rect x="126" y="42" width="7" height="7" fill="#505050"/>
  <rect x="147" y="42" width="7" height="7" fill="#505050"/>
  <rect x="168" y="42" width="7" height="7" fill="#505050"/>
  <rect x="189" y="42" width="7" height="7" fill="#efefef"/>
  <rect x="210" y="42" width="7" height="7" fill="#efefef"/>
  <rect x="231" y="42" width="7" height="7" fill="#efefef"/>
  <rect x="245" y="42" width="7" height="7" fill="#efefef"/>
  <rect x="252" y="42" width="7" height="7" fill="#efefef"/>
  <rect x="259" y="42" width="7" height="7" fill="#efefef"/>
  <rect x="266" y="42" width="7" height="7" fill="#efefef"/>
  <rect x="280" y="42" width="7" height="7" fill="#efefef"/>
  <rect x="287" y="42" width="7" height="7" fill="#efefef"/>
  <rect x="294" y="42" width="7" height="7" fill="#efefef"/>
  <rect x="301" y="42" width="7" height="7" fill="#efefef"/>
  <rect x="14" y="49" width="7" height="7" fill="#505050"/>
  <rect x="280" y="49" width="7" height="7" fill="#efefef"/>
</svg>