<svg xmlns="http://www.w3.org/2000/svg" viewBox="0 0 14 8">
  <rect width="14" height="8" fill="#000"/>
  <!-- P (prism) in gray -->
  <path fill="#505050" d="M1,1h4v1h-4zM1,2h1v1h-1zM4,2h1v1h-1zM1,3h1v1h-1zM4,3h1v1h-1zM1,4h1v1h-1zM4,4h1v1h-1zM1,5h4v1h-4zM1,6h1v1h-1z"/>
  <!-- M (map) in light -->
  <path fill="#efefef" d="M6,1h3v1h-3zM10,1h2v1h-2zM6,2h1v1h-1zM9,2h1v1h-1zM12,2h1v1h-1zM6,3h1v1h-1zM9,3h1v1h-1zM12,3h1v1h-1zM6,4h1v1h-1zM9,4h1v1h-1zM12,4h1v1h-1zM6,5h1v1h-1zM9,5h1v1h-1zM12,5h1v1h-1z"/>
</svg>
