<svg xmlns="http://www.w3.org/2000/svg" viewBox="0 0 12 6">
  <rect width="12" height="6" fill="#000"/>
  <!-- P (prism) in gray -->
  <path fill="#505050" d="M0,0h4v1h-4zM0,1h1v1h-1zM3,1h1v1h-1zM0,2h1v1h-1zM3,2h1v1h-1zM0,3h1v1h-1zM3,3h1v1h-1zM0,4h4v1h-4zM0,5h1v1h-1z"/>
  <!-- M (map) in light -->
  <path fill="#efefef" d="M5,0h3v1h-3zM9,0h2v1h-2zM5,1h1v1h-1zM8,1h1v1h-1zM11,1h1v1h-1zM5,2h1v1h-1zM8,2h1v1h-1zM11,2h1v1h-1zM5,3h1v1h-1zM8,3h1v1h-1zM11,3h1v1h-1zM5,4h1v1h-1zM8,4h1v1h-1zM11,4h1v1h-1z"/>
</svg>
